<?xml version="1.0" encoding="UTF-8" standalone="no"?>
<svg
   xmlns:dc="http://purl.org/dc/elements/1.1/"
   xmlns:cc="http://creativecommons.org/ns#"
   xmlns:rdf="http://www.w3.org/1999/02/22-rdf-syntax-ns#"
   xmlns:svg="http://www.w3.org/2000/svg"
   xmlns="http://www.w3.org/2000/svg"
   xmlns:sodipodi="http://sodipodi.sourceforge.net/DTD/sodipodi-0.dtd"
   xmlns:inkscape="http://www.inkscape.org/namespaces/inkscape"
   width="517"
   height="116"
   viewBox="0 0 517 116"
   fill="none"
   version="1.1"
   id="svg30"
   sodipodi:docname="mem-dev.svg"
   inkscape:version="0.92.4 5da689c313, 2019-01-14">
  <metadata
     id="metadata36">
    <rdf:RDF>
      <cc:Work
         rdf:about="">
        <dc:format>image/svg+xml</dc:format>
        <dc:type
           rdf:resource="http://purl.org/dc/dcmitype/StillImage" />
        <dc:title></dc:title>
      </cc:Work>
    </rdf:RDF>
  </metadata>
  <defs
     id="defs34" />
  <sodipodi:namedview
     pagecolor="#ffffff"
     bordercolor="#666666"
     borderopacity="1"
     objecttolerance="10"
     gridtolerance="10"
     guidetolerance="10"
     inkscape:pageopacity="0"
     inkscape:pageshadow="2"
     inkscape:window-width="2516"
     inkscape:window-height="1377"
     id="namedview32"
     showgrid="false"
     inkscape:zoom="1.6152671"
     inkscape:cx="398.59279"
     inkscape:cy="-75.666892"
     inkscape:window-x="20"
     inkscape:window-y="20"
     inkscape:window-maximized="0"
     inkscape:current-layer="svg30" />
  <path
     d="m 11.1,35.2 c 0,-2.8 7.3,-7.4 13.6,-9.6 2.9,-1 4.5,-4.1 3.5,-7 -1,-2.9 -4.1,-4.5 -7,-3.5 C 17.7,16.3 0,22.8 0,35.2 v 11 c 0,0.1 0,0.2 0,0.3 0,0.1 0,0.2 0,0.3 v 11 c 0,12.4 17.6,18.9 21.2,20.1 0.6,0.2 1.2,0.3 1.8,0.3 2.3,0 4.5,-1.5 5.3,-3.8 1,-2.9 -0.6,-6 -3.5,-7 -6.3,-2.1 -13.6,-6.7 -13.6,-9.6 v -11 c 0,-0.1 0,-0.2 0,-0.3 0,-0.1 0,-0.2 0,-0.3 v -11 z"
     id="path10"
     inkscape:connector-curvature="0"
     style="fill:#1beca1" />
  <path
     d="m 108.4,35.2 c 0,-12.4 -17.6,-18.9 -21.2,-20.1 -2.9,-1 -6,0.6 -7,3.5 -1,2.9 0.6,6 3.5,7 6.3,2.1 13.6,6.7 13.6,9.6 v 11 c 0,0.1 0,0.2 0,0.3 0,0.1 0,0.2 0,0.3 v 11 c 0,2.8 -7.3,7.4 -13.6,9.6 -2.9,1 -4.5,4.1 -3.5,7 0.8,2.3 2.9,3.8 5.3,3.8 0.6,0 1.2,-0.1 1.8,-0.3 3.5,-1.2 21.2,-7.7 21.2,-20.1 v -11 c 0,-0.1 0,-0.2 0,-0.3 0,-0.1 0,-0.2 0,-0.3 v -11 z"
     id="path12"
     inkscape:connector-curvature="0"
     style="fill:#1beca1" />
  <path
     d="m 53.3,56.5 v -8.4 c 0,-16.4 13.1,-25.2 13.7,-25.6 2.6,-1.7 3.3,-5.1 1.6,-7.6 -1.7,-2.6 -5.1,-3.3 -7.7,-1.7 -0.8,0.5 -18.8,12.4 -18.8,34.9 v 8.4 8.4 8.4 c 0,22.6 18,34.4 18.8,34.9 0.9,0.6 2,0.9 3,0.9 1.8,0 3.6,-0.9 4.7,-2.5 1.7,-2.6 0.9,-6 -1.7,-7.7 -0.1,-0.1 -13.7,-9 -13.7,-25.6 v -8.4 -8.4 z"
     id="path14"
     inkscape:connector-curvature="0"
     style="fill:#1beca1" />
  <g
     id="g45"
     transform="translate(0,12)">
    <path
       id="path16"
       d="m 128.9,22.3 h 9.2 l 0.9,6.4 h 0.3 c 2.2,-4.3 5.4,-7.6 11.2,-7.6 4.6,0 7.8,2.9 9.2,8.5 2.4,-4.9 5.7,-8.5 11.5,-8.5 7.1,0 11.2,5.9 11.2,16 V 73 H 171 V 37.9 c 0,-4.4 -1.2,-6.7 -4,-6.7 -2.8,0 -4.3,2.2 -6.4,6.4 V 73 h -9.9 V 37.9 c 0,-4.4 -1.1,-6.7 -4,-6.7 -2.7,0 -4.4,2.2 -6.3,6.4 V 73 h -11.5 z"
       inkscape:connector-curvature="0"
       style="fill:#2e4468" />
    <path
       id="path18"
       d="M 193.8,47.5 C 193.8,31 206.4,21 220,21 c 15.1,0 23.4,10 23.4,24 0,2.4 -0.3,4.6 -0.5,6 h -37.2 c 1.3,9.4 8,13.9 17.4,13.9 5.4,0 9.7,-1.6 14.2,-4.2 l 4,7.4 c -5.4,3.5 -12.4,6 -19.8,6 -15.4,0 -27.7,-9.8 -27.7,-26.6 z M 206,42.6 h 26.9 c -0.8,-8.2 -5.4,-12.4 -12.6,-12.4 -7,0 -12.8,4.2 -14.3,12.4 z"
       inkscape:connector-curvature="0"
       style="fill:#2e4468" />
    <path
       id="path20"
       d="m 255.7,22.3 h 9.2 l 0.9,6.4 h 0.3 c 2.2,-4.3 5.4,-7.6 11.2,-7.6 4.6,0 7.8,2.9 9.2,8.5 2.4,-4.9 5.7,-8.5 11.5,-8.5 7.1,0 11.2,5.9 11.2,16 V 73 H 297.8 V 37.9 c 0,-4.4 -1.2,-6.7 -4,-6.7 -2.8,0 -4.3,2.2 -6.4,6.4 V 73 h -9.9 V 37.9 c 0,-4.4 -1.1,-6.7 -4,-6.7 -2.7,0 -4.4,2.2 -6.3,6.4 V 73 h -11.5 z"
       inkscape:connector-curvature="0"
       style="fill:#2e4468" />
    <path
       id="path22"
       d="m 320.6,63.7 c 0,-6 4.3,-10.4 10.2,-10.4 5.9,0 10.2,4.4 10.2,10.4 0,6 -4.3,10.4 -10.2,10.4 -5.9,0 -10.2,-4.4 -10.2,-10.4 z"
       inkscape:connector-curvature="0"
       style="fill:#2e4468" />
    <path
       id="path24"
       d="M 350.2,47.6 C 350.2,31.1 361,21 372.6,21 c 5.8,0 10,2.2 13.9,6 h 0.3 l -0.6,-8.6 V 0 h 12 v 72.8 h -9.8 l -0.9,-5.9 h -0.4 c -3.9,3.9 -9.6,7.1 -15.3,7.1 -12.9,0.1 -21.6,-9.7 -21.6,-26.4 z m 36,10.7 V 35.5 c -3.6,-3.4 -7.1,-4.6 -10.8,-4.6 -7,0 -12.9,6.1 -12.9,16.7 0,10.9 4.5,16.8 12.3,16.8 4.2,-0.1 7.9,-2 11.4,-6.1 z"
       inkscape:connector-curvature="0"
       style="fill:#2e4468" />
    <path
       id="path26"
       d="M 408.2,47.5 C 408.2,31 420.8,21 434.4,21 c 15.1,0 23.4,10 23.4,24 0,2.4 -0.3,4.6 -0.5,6 h -37.2 c 1.3,9.4 8,13.9 17.4,13.9 5.4,0 9.7,-1.6 14.2,-4.2 l 4,7.4 c -5.4,3.5 -12.4,6 -19.8,6 -15.4,0 -27.7,-9.8 -27.7,-26.6 z m 12.2,-4.9 h 26.9 c -0.8,-8.2 -5.4,-12.4 -12.6,-12.4 -7,0 -12.8,4.2 -14.3,12.4 z"
       inkscape:connector-curvature="0"
       style="fill:#2e4468" />
    <path
       id="path28"
       d="m 462.8,22.3 h 12 l 9.8,26.3 c 1.9,5.1 3.4,10.1 5.1,15.3 h 0.4 c 1.7,-5.2 3.2,-10.2 5.1,-15.3 L 505,22.3 h 11.3 l -19.7,50.6 h -13.5 z"
       inkscape:connector-curvature="0"
       style="fill:#2e4468" />
  </g>
</svg>
